<svg width="180" height="180" viewBox="0 0 180 180" fill="none" xmlns="http://www.w3.org/2000/svg">
<rect width="180" height="180" rx="40" fill="white"/>
<path d="M136.752 99.31C136.752 119.672 123.629 136.97 105.379 143.206C101.626 144.964 96.0905 148.581 94.5434 156.873C94.3434 157.945 94.21 159.095 94.1558 160.329C94.0925 161.768 94.1368 163.322 94.3084 165C94.025 164.251 93.4722 162.52 92.8349 160.08C92.3972 158.404 91.9197 156.393 91.4622 154.136C91.2024 152.854 90.949 151.493 90.7131 150.068C90.4805 148.664 90.2648 147.198 90.0767 145.685C88.4862 132.903 88.8588 116.831 97.5466 106.827C83.0721 118.569 82.4145 134.933 83.8302 145.228C83.7156 145.212 83.6012 145.195 83.4869 145.178C77.0163 136.29 72.4951 124.85 75.4572 113.072C78.9182 99.3108 86.3881 92.7142 94.5963 85.4658C98.4597 82.0541 102.487 78.4979 106.336 73.9823C113.644 65.4094 115.017 56.1533 114.736 49.1716C127.172 65.4132 136.752 82.126 136.752 99.31Z" fill="url(#paint0_linear_2010_30)"/>
<path d="M113.653 47.7674C113.278 52.4774 111.492 62.2339 103.445 70.2814C100.493 73.2327 97.0672 75.9119 93.5177 78.6875L93.2383 78.906C93.2289 73.5526 92.0586 60.0068 81.5867 47.7294C89.0794 64.077 88.6112 77.3531 87.8428 83.2198C79.702 89.9935 71.884 98.2705 68.5181 112.379C65.8775 123.446 69.076 134.07 73.5156 142.526C56.2392 135.781 44 118.975 44 99.31C44 75.8395 57.9137 58.8672 69.7431 44.4375C78.4899 33.7679 86.0971 24.4885 86.0971 15C89.1225 18.6024 92.2531 22.23 95.4054 25.8829C101.616 33.0797 107.911 40.3747 113.653 47.7674Z" fill="url(#paint1_linear_2010_30)"/>
<defs>
<linearGradient id="paint0_linear_2010_30" x1="90.3762" y1="15" x2="90.3762" y2="165" gradientUnits="userSpaceOnUse">
<stop stop-color="#B9E173"/>
<stop offset="1" stop-color="#4E7F2D"/>
</linearGradient>
<linearGradient id="paint1_linear_2010_30" x1="90.3763" y1="15" x2="90.3763" y2="165" gradientUnits="userSpaceOnUse">
<stop stop-color="#5D823D"/>
<stop offset="1" stop-color="#082B05"/>
</linearGradient>
</defs>
</svg>
