<svg width="881" height="334" viewBox="0 0 881 334" fill="none" xmlns="http://www.w3.org/2000/svg">
<path d="M206 187.249C206 232.473 176.854 270.89 136.322 284.74C127.985 288.646 115.691 296.678 112.255 315.095C111.811 317.475 111.515 320.03 111.394 322.771C111.254 325.967 111.352 329.418 111.733 333.145C111.104 331.481 109.876 327.637 108.461 322.217C107.489 318.495 106.428 314.03 105.412 309.017C104.835 306.17 104.272 303.146 103.748 299.982C103.232 296.862 102.753 293.606 102.335 290.247C98.8024 261.859 99.6299 226.164 118.925 203.945C86.7778 230.024 85.3173 266.367 88.4614 289.231C88.2071 289.195 87.953 289.159 87.6992 289.121C73.328 269.381 63.2866 243.973 69.8653 217.816C77.5521 187.251 94.1426 172.601 112.373 156.502C120.953 148.925 129.897 141.027 138.446 130.998C154.677 111.957 157.727 91.4001 157.103 75.8939C184.721 111.966 206 149.084 206 187.249Z" fill="url(#paint0_linear_2009_127)"/>
<path d="M154.698 72.7752C153.863 83.2361 149.898 104.905 132.025 122.778C125.47 129.333 117.86 135.283 109.977 141.448L109.357 141.933C109.336 130.043 106.737 99.9585 83.4788 72.6908C100.12 108.998 99.0799 138.484 97.3734 151.514C79.293 166.558 61.9293 184.941 54.4538 216.274C48.5891 240.856 55.6929 264.451 65.5531 283.231C27.1829 268.25 0 230.924 0 187.249C0 135.122 30.9019 97.4275 57.1745 65.3797C76.6009 41.6829 93.4963 21.0735 93.4963 0C100.216 8.00081 107.168 16.0577 114.17 24.1706C127.963 40.1545 141.945 56.3562 154.698 72.7752Z" fill="url(#paint1_linear_2009_127)"/>
<path d="M251.375 170V65H293.45C301.3 65 308.25 66.375 314.3 69.125C320.35 71.825 325.1 75.775 328.55 80.975C332.05 86.175 333.8 92.425 333.8 99.725C333.8 107.125 332.2 113.4 329 118.55C325.8 123.7 321.15 127.625 315.05 130.325C308.95 133.025 301.55 134.375 292.85 134.375H276.275V170H251.375ZM276.275 113.525H292.25C297.5 113.525 301.575 112.5 304.475 110.45C307.425 108.35 308.9 104.9 308.9 100.1C308.9 95.3 307.375 91.825 304.325 89.675C301.325 87.475 297.35 86.375 292.4 86.375H276.275V113.525Z" fill="#1B3E12"/>
<path d="M396.459 172.25C388.409 172.25 380.959 170.875 374.109 168.125C367.309 165.325 361.384 161.45 356.334 156.5C351.284 151.55 347.359 145.75 344.559 139.1C341.809 132.45 340.434 125.25 340.434 117.5C340.434 109.7 341.809 102.475 344.559 95.825C347.359 89.175 351.284 83.375 356.334 78.425C361.384 73.475 367.309 69.625 374.109 66.875C380.959 64.125 388.409 62.75 396.459 62.75C404.559 62.75 412.009 64.15 418.809 66.95C425.609 69.75 431.534 73.65 436.584 78.65C441.634 83.65 445.534 89.475 448.284 96.125C451.084 102.725 452.484 109.85 452.484 117.5C452.484 125.25 451.084 132.45 448.284 139.1C445.534 145.75 441.634 151.55 436.584 156.5C431.534 161.45 425.609 165.325 418.809 168.125C412.009 170.875 404.559 172.25 396.459 172.25ZM396.459 148.85C400.809 148.85 404.784 148.125 408.384 146.675C412.034 145.225 415.209 143.125 417.909 140.375C420.609 137.625 422.684 134.325 424.134 130.475C425.634 126.575 426.384 122.25 426.384 117.5C426.384 111.1 425.084 105.55 422.484 100.85C419.934 96.15 416.384 92.525 411.834 89.975C407.334 87.375 402.209 86.075 396.459 86.075C392.159 86.075 388.184 86.825 384.534 88.325C380.884 89.775 377.709 91.875 375.009 94.625C372.359 97.375 370.284 100.675 368.784 104.525C367.284 108.375 366.534 112.7 366.534 117.5C366.534 123.85 367.834 129.375 370.434 134.075C373.034 138.775 376.584 142.425 381.084 145.025C385.634 147.575 390.759 148.85 396.459 148.85Z" fill="#1B3E12"/>
<path d="M467.738 170V65H492.638V147.275H534.788V170H467.738Z" fill="#1B3E12"/>
<path d="M548.82 170V65H573.72V170H548.82Z" fill="#1B3E12"/>
<path d="M632.154 172.25C624.204 172.25 616.479 171.075 608.979 168.725C601.479 166.375 595.129 162.975 589.929 158.525L601.629 139.925C603.829 142.275 606.629 144.3 610.029 146C613.429 147.7 617.054 149.025 620.904 149.975C624.804 150.875 628.579 151.325 632.229 151.325C637.379 151.325 641.554 150.475 644.754 148.775C648.004 147.025 649.629 144.5 649.629 141.2C649.629 138.5 648.454 136.225 646.104 134.375C643.804 132.525 639.479 130.75 633.129 129.05L624.129 126.5C613.329 123.5 605.554 119.4 600.804 114.2C596.054 109 593.679 102.75 593.679 95.45C593.679 90.75 594.679 86.425 596.679 82.475C598.679 78.475 601.479 75.025 605.079 72.125C608.679 69.175 612.904 66.9 617.754 65.3C622.654 63.65 627.979 62.825 633.729 62.825C641.679 62.825 649.054 64 655.854 66.35C662.704 68.65 668.204 71.8 672.354 75.8L660.204 93.8C658.304 91.8 655.954 90.05 653.154 88.55C650.354 87.05 647.304 85.875 644.004 85.025C640.704 84.175 637.379 83.75 634.029 83.75C630.729 83.75 627.854 84.175 625.404 85.025C622.954 85.875 621.029 87.1 619.629 88.7C618.279 90.25 617.604 92.1 617.604 94.25C617.604 96 618.104 97.475 619.104 98.675C620.154 99.825 621.879 100.925 624.279 101.975C626.729 103.025 630.029 104.175 634.179 105.425L643.329 108.125C654.079 111.275 661.854 115.225 666.654 119.975C671.454 124.725 673.854 130.9 673.854 138.5C673.854 145.15 672.154 151.025 668.754 156.125C665.354 161.175 660.529 165.125 654.279 167.975C648.079 170.825 640.704 172.25 632.154 172.25Z" fill="#1B3E12"/>
<path d="M688.279 170V65H713.179V109.775L748.804 65H779.854L741.004 113.225L784.879 170H752.854L724.579 132.05L713.179 145.025V170H688.279Z" fill="#1B3E12"/>
<path d="M819.064 170V126.125L782.239 65H810.214L832.039 102.275L853.639 65H880.864L844.039 126.35V170H819.064Z" fill="#1B3E12"/>
<path d="M239.367 281L266.825 207.5H287.037L314.757 281H295.122L289.925 266.09H263.57L258.477 281H239.367ZM267.507 251.547H285.882L276.642 226.137L267.507 251.547Z" fill="#40681F"/>
<path d="M340.966 304.625C336.976 304.625 333.371 304.275 330.151 303.575C326.966 302.91 324.219 301.93 321.909 300.635C319.634 299.375 317.884 297.835 316.659 296.015C315.434 294.23 314.821 292.217 314.821 289.977C314.821 288.227 315.311 286.582 316.291 285.042C317.271 283.502 318.671 282.155 320.491 281C322.311 279.88 324.499 279.04 327.054 278.48C325.059 277.325 323.571 276.03 322.591 274.595C321.646 273.16 321.174 271.532 321.174 269.712C321.174 268.067 321.664 266.51 322.644 265.04C323.624 263.535 324.989 262.205 326.739 261.05C328.489 259.86 330.536 258.932 332.881 258.267C335.226 257.567 337.781 257.235 340.546 257.27L343.644 263.727C341.684 263.727 340.074 263.85 338.814 264.095C337.554 264.34 336.626 264.725 336.031 265.25C335.436 265.74 335.139 266.3 335.139 266.93C335.139 267.77 335.629 268.435 336.609 268.925C337.624 269.38 339.356 269.712 341.806 269.922L350.941 270.71C355.386 271.13 359.236 271.882 362.491 272.967C365.746 274.052 368.266 275.61 370.051 277.64C371.836 279.67 372.729 282.295 372.729 285.515C372.729 288.28 371.976 290.817 370.471 293.127C368.966 295.472 366.814 297.502 364.014 299.217C361.249 300.932 357.906 302.262 353.986 303.207C350.101 304.152 345.761 304.625 340.966 304.625ZM343.486 293.81C347.651 293.81 350.941 293.25 353.356 292.13C355.771 291.045 356.979 289.627 356.979 287.877C356.979 286.477 356.261 285.41 354.826 284.675C353.391 283.975 351.116 283.502 348.001 283.257L337.816 282.47C336.101 282.645 334.631 282.977 333.406 283.467C332.216 283.992 331.306 284.622 330.676 285.357C330.081 286.092 329.784 286.915 329.784 287.825C329.784 289.015 330.344 290.065 331.464 290.975C332.584 291.885 334.159 292.585 336.189 293.075C338.254 293.565 340.686 293.81 343.486 293.81ZM342.699 264.305C337.939 264.305 333.739 263.465 330.099 261.785C326.494 260.07 323.659 257.76 321.594 254.855C319.564 251.95 318.549 248.677 318.549 245.037C318.549 241.502 319.581 238.282 321.646 235.377C323.746 232.472 326.616 230.162 330.256 228.447C333.896 226.732 338.044 225.875 342.699 225.875C347.319 225.875 351.431 226.732 355.036 228.447C358.676 230.127 361.529 232.42 363.594 235.325C365.694 238.195 366.744 241.432 366.744 245.037C366.744 248.607 365.711 251.862 363.646 254.802C361.616 257.707 358.799 260.017 355.194 261.732C351.589 263.447 347.424 264.305 342.699 264.305ZM342.699 252.65C344.519 252.65 346.146 252.335 347.581 251.705C349.051 251.04 350.206 250.147 351.046 249.027C351.886 247.872 352.306 246.542 352.306 245.037C352.306 242.797 351.379 240.977 349.524 239.577C347.704 238.142 345.429 237.425 342.699 237.425C340.844 237.425 339.181 237.757 337.711 238.422C336.276 239.087 335.139 239.997 334.299 241.152C333.459 242.272 333.039 243.567 333.039 245.037C333.039 247.277 333.949 249.115 335.769 250.55C337.624 251.95 339.934 252.65 342.699 252.65ZM350.731 240.312L344.221 229.13L375.931 227.45V241.1L350.731 240.312Z" fill="#40681F"/>
<path d="M382.316 281V227.45H399.536V233.697C401.146 230.932 403.281 228.92 405.941 227.66C408.601 226.4 411.488 225.77 414.603 225.77C415.793 225.77 416.861 225.84 417.806 225.98C418.751 226.12 419.678 226.277 420.588 226.452L418.541 244.145C417.351 243.725 416.091 243.392 414.761 243.147C413.431 242.867 412.101 242.727 410.771 242.727C407.516 242.727 404.821 243.672 402.686 245.562C400.586 247.417 399.536 250.147 399.536 253.752V281H382.316Z" fill="#40681F"/>
<path d="M451.311 282.575C445.466 282.575 440.303 281.297 435.823 278.742C431.343 276.152 427.826 272.705 425.271 268.4C422.751 264.095 421.491 259.37 421.491 254.225C421.491 250.48 422.208 246.91 423.643 243.515C425.113 240.085 427.178 237.057 429.838 234.432C432.498 231.772 435.648 229.69 439.288 228.185C442.928 226.645 446.936 225.875 451.311 225.875C457.156 225.875 462.318 227.17 466.798 229.76C471.278 232.315 474.778 235.745 477.298 240.05C479.818 244.355 481.078 249.08 481.078 254.225C481.078 257.97 480.361 261.557 478.926 264.987C477.491 268.382 475.443 271.392 472.783 274.017C470.123 276.642 466.973 278.725 463.333 280.265C459.693 281.805 455.686 282.575 451.311 282.575ZM451.311 267.77C453.761 267.77 455.966 267.227 457.926 266.142C459.886 265.022 461.426 263.447 462.546 261.417C463.666 259.387 464.226 256.99 464.226 254.225C464.226 251.425 463.666 249.027 462.546 247.032C461.461 245.002 459.938 243.445 457.978 242.36C456.018 241.24 453.796 240.68 451.311 240.68C448.826 240.68 446.603 241.24 444.643 242.36C442.683 243.445 441.143 245.002 440.023 247.032C438.903 249.027 438.343 251.425 438.343 254.225C438.343 256.99 438.903 259.387 440.023 261.417C441.178 263.447 442.736 265.022 444.696 266.142C446.656 267.227 448.861 267.77 451.311 267.77Z" fill="#40681F"/>
<path d="M489.063 281V205.4H506.283V239.42L502.713 235.167C505.023 232.332 507.77 230.075 510.955 228.395C514.14 226.715 517.658 225.875 521.508 225.875C526.513 225.875 530.678 226.872 534.003 228.867C537.363 230.862 539.865 233.47 541.51 236.69C543.155 239.91 543.978 243.375 543.978 247.085V281H526.758V251.915C526.758 248.835 525.865 246.332 524.08 244.407C522.295 242.482 519.793 241.502 516.573 241.467C514.403 241.432 512.548 241.87 511.008 242.78C509.503 243.655 508.33 244.932 507.49 246.612C506.685 248.257 506.283 250.217 506.283 252.492V281H489.063Z" fill="#40681F"/>
<path d="M581.232 282.575C575.387 282.575 570.224 281.297 565.744 278.742C561.264 276.152 557.747 272.705 555.192 268.4C552.672 264.095 551.412 259.37 551.412 254.225C551.412 250.48 552.129 246.91 553.564 243.515C555.034 240.085 557.099 237.057 559.759 234.432C562.419 231.772 565.569 229.69 569.209 228.185C572.849 226.645 576.857 225.875 581.232 225.875C587.077 225.875 592.239 227.17 596.719 229.76C601.199 232.315 604.699 235.745 607.219 240.05C609.739 244.355 610.999 249.08 610.999 254.225C610.999 257.97 610.282 261.557 608.847 264.987C607.412 268.382 605.364 271.392 602.704 274.017C600.044 276.642 596.894 278.725 593.254 280.265C589.614 281.805 585.607 282.575 581.232 282.575ZM581.232 267.77C583.682 267.77 585.887 267.227 587.847 266.142C589.807 265.022 591.347 263.447 592.467 261.417C593.587 259.387 594.147 256.99 594.147 254.225C594.147 251.425 593.587 249.027 592.467 247.032C591.382 245.002 589.859 243.445 587.899 242.36C585.939 241.24 583.717 240.68 581.232 240.68C578.747 240.68 576.524 241.24 574.564 242.36C572.604 243.445 571.064 245.002 569.944 247.032C568.824 249.027 568.264 251.425 568.264 254.225C568.264 256.99 568.824 259.387 569.944 261.417C571.099 263.447 572.657 265.022 574.617 266.142C576.577 267.227 578.782 267.77 581.232 267.77Z" fill="#40681F"/>
<path d="M618.984 281V205.4H636.204V281H618.984Z" fill="#40681F"/>
<path d="M670.831 282.575C665.756 282.575 661.206 281.402 657.181 279.057C653.156 276.677 649.989 273.37 647.679 269.135C645.369 264.865 644.214 259.895 644.214 254.225C644.214 250.2 644.879 246.472 646.209 243.042C647.539 239.612 649.394 236.62 651.774 234.065C654.189 231.475 657.041 229.462 660.331 228.027C663.621 226.592 667.226 225.875 671.146 225.875C675.241 225.875 678.934 226.68 682.224 228.29C685.514 229.9 688.384 232.297 690.834 235.482L686.896 239.42V205.4H704.116V281H689.259V267.087L691.621 270.972C690.081 274.402 687.509 277.202 683.904 279.372C680.299 281.507 675.941 282.575 670.831 282.575ZM674.034 267.77C676.484 267.77 678.689 267.227 680.649 266.142C682.609 265.022 684.149 263.447 685.269 261.417C686.389 259.387 686.949 256.99 686.949 254.225C686.949 251.425 686.389 249.027 685.269 247.032C684.184 245.002 682.661 243.445 680.701 242.36C678.741 241.24 676.519 240.68 674.034 240.68C671.549 240.68 669.326 241.24 667.366 242.36C665.406 243.445 663.866 245.002 662.746 247.032C661.626 249.027 661.066 251.425 661.066 254.225C661.066 256.99 661.626 259.387 662.746 261.417C663.901 263.447 665.459 265.022 667.419 266.142C669.379 267.227 671.584 267.77 674.034 267.77Z" fill="#40681F"/>
<path d="M716.298 281V227.45H733.518V281H716.298ZM724.908 219.522C722.143 219.522 719.728 218.665 717.663 216.95C715.633 215.2 714.618 212.872 714.618 209.967C714.618 206.992 715.633 204.647 717.663 202.932C719.728 201.217 722.143 200.36 724.908 200.36C727.708 200.36 730.123 201.217 732.153 202.932C734.183 204.647 735.198 206.992 735.198 209.967C735.198 212.872 734.183 215.2 732.153 216.95C730.123 218.665 727.708 219.522 724.908 219.522Z" fill="#40681F"/>
<path d="M745.78 281V227.45H763V233.12C764.995 230.6 767.357 228.762 770.087 227.607C772.817 226.452 775.687 225.875 778.697 225.875C783.737 225.875 787.885 226.872 791.14 228.867C794.395 230.827 796.792 233.382 798.332 236.532C799.907 239.647 800.695 242.955 800.695 246.455V281H783.475V251.862C783.475 248.642 782.617 246.105 780.902 244.25C779.222 242.395 776.737 241.467 773.447 241.467C771.347 241.467 769.51 241.922 767.935 242.832C766.395 243.742 765.187 245.037 764.312 246.717C763.437 248.362 763 250.252 763 252.387V281H745.78Z" fill="#40681F"/>
<path d="M833.223 304.625C829.233 304.625 825.628 304.275 822.408 303.575C819.223 302.91 816.476 301.93 814.166 300.635C811.891 299.375 810.141 297.835 808.916 296.015C807.691 294.23 807.078 292.217 807.078 289.977C807.078 288.227 807.568 286.582 808.548 285.042C809.528 283.502 810.928 282.155 812.748 281C814.568 279.88 816.756 279.04 819.311 278.48C817.316 277.325 815.828 276.03 814.848 274.595C813.903 273.16 813.431 271.532 813.431 269.712C813.431 268.067 813.921 266.51 814.901 265.04C815.881 263.535 817.246 262.205 818.996 261.05C820.746 259.86 822.793 258.932 825.138 258.267C827.483 257.567 830.038 257.235 832.803 257.27L835.901 263.727C833.941 263.727 832.331 263.85 831.071 264.095C829.811 264.34 828.883 264.725 828.288 265.25C827.693 265.74 827.396 266.3 827.396 266.93C827.396 267.77 827.886 268.435 828.866 268.925C829.881 269.38 831.613 269.712 834.063 269.922L843.198 270.71C847.643 271.13 851.493 271.882 854.748 272.967C858.003 274.052 860.523 275.61 862.308 277.64C864.093 279.67 864.986 282.295 864.986 285.515C864.986 288.28 864.233 290.817 862.728 293.127C861.223 295.472 859.071 297.502 856.271 299.217C853.506 300.932 850.163 302.262 846.243 303.207C842.358 304.152 838.018 304.625 833.223 304.625ZM835.743 293.81C839.908 293.81 843.198 293.25 845.613 292.13C848.028 291.045 849.236 289.627 849.236 287.877C849.236 286.477 848.518 285.41 847.083 284.675C845.648 283.975 843.373 283.502 840.258 283.257L830.073 282.47C828.358 282.645 826.888 282.977 825.663 283.467C824.473 283.992 823.563 284.622 822.933 285.357C822.338 286.092 822.041 286.915 822.041 287.825C822.041 289.015 822.601 290.065 823.721 290.975C824.841 291.885 826.416 292.585 828.446 293.075C830.511 293.565 832.943 293.81 835.743 293.81ZM834.956 264.305C830.196 264.305 825.996 263.465 822.356 261.785C818.751 260.07 815.916 257.76 813.851 254.855C811.821 251.95 810.806 248.677 810.806 245.037C810.806 241.502 811.838 238.282 813.903 235.377C816.003 232.472 818.873 230.162 822.513 228.447C826.153 226.732 830.301 225.875 834.956 225.875C839.576 225.875 843.688 226.732 847.293 228.447C850.933 230.127 853.786 232.42 855.851 235.325C857.951 238.195 859.001 241.432 859.001 245.037C859.001 248.607 857.968 251.862 855.903 254.802C853.873 257.707 851.056 260.017 847.451 261.732C843.846 263.447 839.681 264.305 834.956 264.305ZM834.956 252.65C836.776 252.65 838.403 252.335 839.838 251.705C841.308 251.04 842.463 250.147 843.303 249.027C844.143 247.872 844.563 246.542 844.563 245.037C844.563 242.797 843.636 240.977 841.781 239.577C839.961 238.142 837.686 237.425 834.956 237.425C833.101 237.425 831.438 237.757 829.968 238.422C828.533 239.087 827.396 239.997 826.556 241.152C825.716 242.272 825.296 243.567 825.296 245.037C825.296 247.277 826.206 249.115 828.026 250.55C829.881 251.95 832.191 252.65 834.956 252.65ZM842.988 240.312L836.478 229.13L868.188 227.45V241.1L842.988 240.312Z" fill="#40681F"/>
<defs>
<linearGradient id="paint0_linear_2009_127" x1="103" y1="-4.28117e-06" x2="103" y2="333.145" gradientUnits="userSpaceOnUse">
<stop stop-color="#B9E173"/>
<stop offset="1" stop-color="#4E7F2D"/>
</linearGradient>
<linearGradient id="paint1_linear_2009_127" x1="103" y1="0" x2="103" y2="333.145" gradientUnits="userSpaceOnUse">
<stop stop-color="#5D823D"/>
<stop offset="1" stop-color="#082B05"/>
</linearGradient>
</defs>
</svg>
